<svg width="21" height="22" viewBox="0 0 21 22" fill="none" xmlns="http://www.w3.org/2000/svg">
<path d="M14.875 1.83325H6.125C3.70875 1.83325 1.75 3.88528 1.75 6.41659V15.5833C1.75 18.1146 3.70875 20.1666 6.125 20.1666H14.875C17.2912 20.1666 19.25 18.1146 19.25 15.5833V6.41659C19.25 3.88528 17.2912 1.83325 14.875 1.83325Z" stroke="#4D84FA" stroke-width="2" stroke-linecap="round" stroke-linejoin="round"/>
<path d="M14 10.4225C14.108 11.1854 13.9836 11.9646 13.6445 12.6491C13.3055 13.3337 12.769 13.8888 12.1114 14.2356C11.4538 14.5823 10.7086 14.703 9.9818 14.5805C9.25497 14.4579 8.58353 14.0984 8.06297 13.5531C7.54242 13.0078 7.19925 12.3043 7.0823 11.5429C6.96534 10.7815 7.08054 10.0008 7.41152 9.31187C7.7425 8.62298 8.2724 8.06096 8.92585 7.70575C9.5793 7.35055 10.323 7.22024 11.0512 7.33337C11.794 7.44876 12.4817 7.81137 13.0127 8.36765C13.5437 8.92392 13.8898 9.64435 14 10.4225Z" stroke="#4D84FA" stroke-width="2" stroke-linecap="round" stroke-linejoin="round"/>
<path d="M15.3125 5.95825H15.3212" stroke="#4D84FA" stroke-width="2" stroke-linecap="round" stroke-linejoin="round"/>
</svg>
