<svg width="393" height="118" viewBox="0 0 393 118" fill="none" xmlns="http://www.w3.org/2000/svg">
<path d="M22.2026 1.58691L28.166 18.3652L34.4326 1.58691H50.2339L56.8037 18.3652L62.4302 1.58691H84.6665L67.3491 53H50.5708L42.4512 32.6504L34.9043 53H18.1597L0 1.58691H22.2026Z" fill="#E8B912"/>
<path d="M109.531 6.64062C109.531 8.25781 108.947 9.65039 107.779 10.8184C106.633 11.9863 105.263 12.5703 103.668 12.5703C102.051 12.5703 100.659 11.9863 99.4907 10.8184C98.3228 9.65039 97.7388 8.25781 97.7388 6.64062C97.7388 5.0459 98.3228 3.67578 99.4907 2.53027C100.659 1.3623 102.051 0.77832 103.668 0.77832C105.263 0.77832 106.633 1.35107 107.779 2.49658C108.947 3.59717 109.531 4.97852 109.531 6.64062ZM88.8442 12.4355C90.1245 13.1768 91.6968 13.7495 93.561 14.1538C95.4253 14.5581 97.4131 14.7603 99.5244 14.7603C101.501 14.7603 103.365 14.5693 105.117 14.1875C106.869 13.7832 108.385 13.1992 109.666 12.4355V53H88.8442V12.4355Z" fill="#4D83FA"/>
<path d="M141.335 1.58691V40.0962H161.281V53H118.56V1.58691H141.335Z" fill="#36926D"/>
<path d="M192.614 1.58691C198.094 1.58691 202.979 2.66504 207.27 4.82129C211.56 6.97754 214.884 10.1108 217.242 14.2212C219.601 18.3091 220.78 22.7002 220.78 27.3945C220.78 32.1787 219.567 36.6035 217.141 40.6689C214.76 44.6895 211.38 47.7554 207 49.8667C202.643 51.9556 197.679 53 192.108 53H166.907V1.58691H192.614ZM189.649 33.3242H190.255C192.996 33.3242 194.972 32.8525 196.185 31.9092C197.398 30.9434 198.004 29.3711 198.004 27.1924C198.004 25.2832 197.42 23.8232 196.252 22.8125C195.107 21.7793 193.344 21.2627 190.963 21.2627H189.649V33.3242Z" fill="#95ED5F"/>
<path d="M47.3364 65.5869V78.4907H27.7954V87.8232H42.2827V100.727H27.7954V117H5.05371V65.5869H47.3364Z" fill="#45D2C1"/>
<path d="M95.2456 65.5869V78.4907H75.3003V84.8584H89.1812V97.7622H75.3003V104.096H95.2456V117H52.5586V65.5869H95.2456Z" fill="#CE82E9"/>
<path d="M144.907 65.5869V78.4907H124.961V84.8584H138.842V97.7622H124.961V104.096H144.907V117H102.22V65.5869H144.907Z" fill="#FA4F39"/>
<path d="M174.555 65.5869V104.096H194.5V117H151.78V65.5869H174.555Z" fill="#9ABCA8"/>
<path d="M219.702 70.6406C219.702 72.2578 219.118 73.6504 217.95 74.8184C216.804 75.9863 215.434 76.5703 213.839 76.5703C212.222 76.5703 210.83 75.9863 209.662 74.8184C208.494 73.6504 207.91 72.2578 207.91 70.6406C207.91 69.0459 208.494 67.6758 209.662 66.5303C210.83 65.3623 212.222 64.7783 213.839 64.7783C215.434 64.7783 216.804 65.3511 217.95 66.4966C219.118 67.5972 219.702 68.9785 219.702 70.6406ZM199.015 76.4355C200.295 77.1768 201.868 77.7495 203.732 78.1538C205.596 78.5581 207.584 78.7603 209.695 78.7603C211.672 78.7603 213.536 78.5693 215.288 78.1875C217.04 77.7832 218.556 77.1992 219.836 76.4355V117H199.015V76.4355Z" fill="#F5ABCF"/>
<path d="M245.105 65.5869L256.964 82.7695H257.099V65.5869H279.875V117.404H262.625L251.708 101.401H251.574V117H228.832V65.5869H245.105Z" fill="#FFC5A4"/>
<path d="M316.901 64.7783C321.146 64.7783 325.526 65.4072 330.041 66.665C332.287 67.2939 334.387 68.0239 336.341 68.855C338.318 69.686 340.148 70.6182 341.833 71.6514L330.85 87.1157C326.268 84.9146 322.045 83.814 318.182 83.814C315.599 83.814 313.521 84.4878 311.949 85.8354C310.376 87.1382 309.59 88.9014 309.59 91.125C309.59 93.3037 310.253 94.8984 311.578 95.9092C312.903 96.8975 314.981 97.3916 317.811 97.3916V89.3394H340.586V117.067L329.367 117.606C327.548 117.696 326.009 117.752 324.751 117.775C323.494 117.82 322.505 117.842 321.787 117.842C314.419 117.842 308.411 116.944 303.762 115.147C299.18 113.373 295.451 110.307 292.576 105.949C289.746 101.614 288.331 96.6729 288.331 91.125C288.331 86.1836 289.499 81.6465 291.835 77.5137C294.148 73.4258 297.461 70.2812 301.774 68.0801C306.064 65.8789 311.106 64.7783 316.901 64.7783Z" fill="#ADABD4"/>
<path d="M371.347 64.7783C373.099 64.7783 374.873 64.8682 376.67 65.0479C378.467 65.2051 380.32 65.4409 382.229 65.7554C384.138 66.0698 385.901 66.4292 387.519 66.8335C389.136 67.2378 390.618 67.6982 391.966 68.2148L386.306 84.4204C384.531 82.0396 382.555 80.1978 380.376 78.895C378.197 77.5698 375.917 76.9072 373.537 76.9072C372.122 76.9072 371.1 77.1992 370.471 77.7832C369.842 78.3447 369.527 79.0522 369.527 79.9058C369.527 80.7144 370.134 81.4893 371.347 82.2305C372.582 82.9717 374.48 83.8252 377.041 84.791C383.711 87.2393 388.024 89.6763 389.978 92.1021C391.887 94.4829 392.842 97.4253 392.842 100.929C392.842 106.387 390.764 110.576 386.609 113.496C382.476 116.394 376.311 117.842 368.112 117.842C363.845 117.842 359.791 117.55 355.95 116.966C352.109 116.382 348.335 115.383 344.629 113.968L350.188 96.7852C351.761 99.2559 353.749 101.244 356.152 102.749C358.533 104.253 360.835 105.006 363.059 105.006C364.159 105.006 365.069 104.736 365.788 104.197C366.529 103.636 366.899 102.939 366.899 102.108C366.899 101.12 366.383 100.267 365.35 99.5479C364.339 98.8066 362.755 98.0205 360.599 97.1895C355.298 95.1904 351.66 93.0229 349.683 90.687C347.729 88.3286 346.752 85.4424 346.752 82.0283C346.752 76.3008 348.818 71.9995 352.951 69.1245C357.084 66.2271 363.216 64.7783 371.347 64.7783Z" fill="#DC781A"/>
</svg>
