<svg width="269" height="23" viewBox="0 0 269 23" fill="none" xmlns="http://www.w3.org/2000/svg">
<path d="M9.33154 0.662109L11.8379 7.71387L14.4717 0.662109H21.1128L23.874 7.71387L26.2388 0.662109H35.5845L28.3062 22.2705H21.2544L17.8418 13.7178L14.6699 22.2705H7.63232L0 0.662109H9.33154ZM46.0347 2.78613C46.0347 3.46582 45.7892 4.05111 45.2983 4.54199C44.8169 5.03288 44.241 5.27832 43.5708 5.27832C42.8911 5.27832 42.3058 5.03288 41.8149 4.54199C41.3241 4.05111 41.0786 3.46582 41.0786 2.78613C41.0786 2.11589 41.3241 1.54004 41.8149 1.05859C42.3058 0.567708 42.8911 0.322266 43.5708 0.322266C44.241 0.322266 44.8169 0.562988 45.2983 1.04443C45.7892 1.507 46.0347 2.08757 46.0347 2.78613ZM37.3403 5.22168C37.8784 5.5332 38.5392 5.77393 39.3228 5.94385C40.1063 6.11377 40.9417 6.19873 41.8291 6.19873C42.6598 6.19873 43.4434 6.11849 44.1797 5.95801C44.916 5.78809 45.5532 5.54264 46.0913 5.22168V22.2705H37.3403V5.22168ZM59.4019 0.662109V16.8472H67.7847V22.2705H49.8296V0.662109H59.4019ZM80.9536 0.662109C83.257 0.662109 85.3102 1.11523 87.1133 2.02148C88.9163 2.92773 90.3135 4.24463 91.3047 5.97217C92.2959 7.69027 92.7915 9.53581 92.7915 11.5088C92.7915 13.5195 92.2817 15.3792 91.2622 17.0879C90.2616 18.7777 88.8408 20.0662 87 20.9536C85.1686 21.8315 83.0824 22.2705 80.7412 22.2705H70.1494V0.662109H80.9536ZM79.7075 14.001H79.9624C81.1141 14.001 81.9448 13.8027 82.4546 13.4062C82.9644 13.0003 83.2192 12.3395 83.2192 11.4238C83.2192 10.6214 82.9738 10.0078 82.4829 9.58301C82.0015 9.14876 81.2604 8.93164 80.2598 8.93164H79.7075V14.001ZM123.208 0.662109V6.08545H114.995V10.0078H121.083V15.4312H114.995V22.2705H105.437V0.662109H123.208ZM143.343 0.662109V6.08545H134.96V8.76172H140.794V14.1851H134.96V16.8472H143.343V22.2705H125.402V0.662109H143.343ZM164.215 0.662109V6.08545H155.833V8.76172H161.667V14.1851H155.833V16.8472H164.215V22.2705H146.274V0.662109H164.215ZM176.676 0.662109V16.8472H185.059V22.2705H167.104V0.662109H176.676ZM195.651 2.78613C195.651 3.46582 195.405 4.05111 194.915 4.54199C194.433 5.03288 193.857 5.27832 193.187 5.27832C192.507 5.27832 191.922 5.03288 191.431 4.54199C190.94 4.05111 190.695 3.46582 190.695 2.78613C190.695 2.11589 190.94 1.54004 191.431 1.05859C191.922 0.567708 192.507 0.322266 193.187 0.322266C193.857 0.322266 194.433 0.562988 194.915 1.04443C195.405 1.507 195.651 2.08757 195.651 2.78613ZM186.957 5.22168C187.495 5.5332 188.155 5.77393 188.939 5.94385C189.722 6.11377 190.558 6.19873 191.445 6.19873C192.276 6.19873 193.06 6.11849 193.796 5.95801C194.532 5.78809 195.169 5.54264 195.708 5.22168V22.2705H186.957V5.22168ZM206.328 0.662109L211.312 7.88379H211.369V0.662109H220.941V22.4404H213.691L209.103 15.7144H209.046V22.2705H199.488V0.662109H206.328ZM236.503 0.322266C238.287 0.322266 240.128 0.586589 242.025 1.11523C242.969 1.37956 243.852 1.68636 244.673 2.03564C245.504 2.38493 246.273 2.77669 246.981 3.21094L242.365 9.71045C240.439 8.78532 238.665 8.32275 237.041 8.32275C235.955 8.32275 235.082 8.60596 234.421 9.17236C233.761 9.71989 233.43 10.4609 233.43 11.3955C233.43 12.3112 233.709 12.9814 234.266 13.4062C234.823 13.8216 235.696 14.0293 236.885 14.0293V10.645H246.458V22.2988L241.742 22.5254C240.978 22.5632 240.331 22.5868 239.802 22.5962C239.274 22.6151 238.858 22.6245 238.556 22.6245C235.46 22.6245 232.935 22.2469 230.98 21.4917C229.055 20.7459 227.488 19.4574 226.279 17.626C225.09 15.804 224.495 13.7272 224.495 11.3955C224.495 9.31868 224.986 7.41178 225.968 5.6748C226.94 3.95671 228.333 2.63509 230.145 1.70996C231.948 0.784831 234.067 0.322266 236.503 0.322266ZM259.386 0.322266C260.122 0.322266 260.868 0.360026 261.623 0.435547C262.378 0.501628 263.157 0.600749 263.959 0.73291C264.762 0.865072 265.503 1.01611 266.183 1.18604C266.862 1.35596 267.485 1.54948 268.052 1.7666L265.673 8.57764C264.927 7.57699 264.096 6.8029 263.181 6.25537C262.265 5.6984 261.307 5.41992 260.306 5.41992C259.711 5.41992 259.282 5.54264 259.018 5.78809C258.753 6.02409 258.621 6.32145 258.621 6.68018C258.621 7.02002 258.876 7.3457 259.386 7.65723C259.905 7.96875 260.703 8.32747 261.779 8.7334C264.583 9.76237 266.395 10.7866 267.216 11.8062C268.019 12.8068 268.42 14.0435 268.42 15.5161C268.42 17.8101 267.547 19.5706 265.8 20.7979C264.063 22.0156 261.472 22.6245 258.026 22.6245C256.233 22.6245 254.529 22.5018 252.915 22.2563C251.3 22.0109 249.714 21.5908 248.157 20.9961L250.493 13.7744C251.154 14.8128 251.989 15.6483 253 16.2808C254 16.9132 254.968 17.2295 255.902 17.2295C256.365 17.2295 256.747 17.1162 257.049 16.8896C257.361 16.6536 257.517 16.361 257.517 16.0117C257.517 15.5964 257.299 15.2376 256.865 14.9355C256.44 14.624 255.775 14.2936 254.869 13.9443C252.641 13.1042 251.111 12.1932 250.281 11.2114C249.459 10.2202 249.049 9.00716 249.049 7.57227C249.049 5.16504 249.917 3.35726 251.654 2.14893C253.391 0.931152 255.968 0.322266 259.386 0.322266Z" fill="black"/>
</svg>
