<svg width="268" height="23" viewBox="0 0 268 23" fill="none" xmlns="http://www.w3.org/2000/svg">
<path d="M14.6699 22H7.63232L0 0.391602H9.33154L11.8379 7.44336L14.4717 0.391602H21.1128L23.874 7.44336L26.2388 0.391602H35.5845L28.3062 22H21.2544L17.8418 13.4473L14.6699 22ZM42.5513 5.00781C41.8716 5.00781 41.2863 4.76237 40.7954 4.27148C40.3045 3.7806 40.0591 3.19531 40.0591 2.51562C40.0591 1.83594 40.3045 1.25537 40.7954 0.773926C41.2863 0.29248 41.8716 0.0517578 42.5513 0.0517578C43.231 0.0517578 43.8115 0.29248 44.293 0.773926C44.7744 1.25537 45.0151 1.83594 45.0151 2.51562C45.0151 3.19531 44.7744 3.7806 44.293 4.27148C43.8115 4.76237 43.231 5.00781 42.5513 5.00781ZM45.0718 4.95117V22H36.3208V4.95117C37.4725 5.60254 38.9688 5.92822 40.8096 5.92822C42.5182 5.92822 43.939 5.60254 45.0718 4.95117ZM48.8101 22V0.391602H58.3823V16.5767H66.7651V22H48.8101ZM69.1299 0.391602H79.7642C83.5968 0.391602 86.5563 1.45361 88.6426 3.57764C90.7288 5.69222 91.772 8.24577 91.772 11.2383C91.772 13.1452 91.2952 14.9482 90.3418 16.6475C89.3978 18.3372 88.0101 19.6541 86.1787 20.5981C84.3473 21.5327 82.1336 22 79.5376 22H69.1299V0.391602ZM78.688 8.66113V13.7305H78.9287C80.0804 13.7305 80.9111 13.5322 81.4209 13.1357C81.9401 12.7298 82.1997 12.069 82.1997 11.1533C82.1997 9.49186 81.2321 8.66113 79.2969 8.66113H78.688ZM104.417 22V0.391602H122.188V5.81494H113.975V9.7373H120.064V15.1606H113.975V22H104.417ZM142.324 16.5767V22H124.383V0.391602H142.324V5.81494H133.941V8.49121H139.775V13.9146H133.941V16.5767H142.324ZM163.196 16.5767V22H145.255V0.391602H163.196V5.81494H154.813V8.49121H160.647V13.9146H154.813V16.5767H163.196ZM166.084 22V0.391602H175.657V16.5767H184.04V22H166.084ZM192.167 5.00781C191.488 5.00781 190.903 4.76237 190.412 4.27148C189.921 3.7806 189.675 3.19531 189.675 2.51562C189.675 1.83594 189.921 1.25537 190.412 0.773926C190.903 0.29248 191.488 0.0517578 192.167 0.0517578C192.847 0.0517578 193.428 0.29248 193.909 0.773926C194.391 1.25537 194.631 1.83594 194.631 2.51562C194.631 3.19531 194.391 3.7806 193.909 4.27148C193.428 4.76237 192.847 5.00781 192.167 5.00781ZM194.688 4.95117V22H185.937V4.95117C187.089 5.60254 188.585 5.92822 190.426 5.92822C192.134 5.92822 193.555 5.60254 194.688 4.95117ZM219.921 22.1699H212.671L208.027 15.3589V22H198.469V0.391602H205.308L210.349 7.69824V0.391602H219.921V22.1699ZM245.962 2.94043L241.346 9.43994C239.42 8.51481 237.64 8.05225 236.007 8.05225C234.922 8.05225 234.049 8.33545 233.388 8.90186C232.736 9.45882 232.411 10.1999 232.411 11.125C232.411 12.8809 233.562 13.7588 235.866 13.7588V10.3745H245.438V22.0283C241.568 22.2454 238.948 22.354 237.579 22.354C232.293 22.354 228.62 21.2306 226.562 18.9839C224.505 16.7371 223.476 14.1175 223.476 11.125C223.476 9.06706 223.952 7.17904 224.906 5.46094C225.869 3.74284 227.252 2.41178 229.055 1.46777C230.867 0.523763 233.01 0.0517578 235.483 0.0517578C237.22 0.0517578 239.019 0.306641 240.878 0.816406C242.738 1.31673 244.433 2.02474 245.962 2.94043ZM267.032 1.49609L264.653 8.30713C263.096 6.20199 261.307 5.14941 259.287 5.14941C258.163 5.14941 257.602 5.57422 257.602 6.42383C257.602 6.68815 257.776 6.95719 258.125 7.23096C258.484 7.50472 259.414 7.93424 260.915 8.51953C262.567 9.1709 263.837 9.76562 264.724 10.3037C265.621 10.8324 266.291 11.512 266.735 12.3428C267.179 13.1735 267.4 14.1411 267.4 15.2456C267.4 17.5584 266.522 19.3237 264.767 20.5415C263.011 21.7498 260.429 22.354 257.021 22.354C253.198 22.354 249.903 21.8112 247.137 20.7256L249.474 13.5039C250.153 14.5612 250.993 15.4014 251.994 16.0244C253.004 16.6475 253.972 16.959 254.897 16.959C255.35 16.959 255.728 16.841 256.03 16.605C256.341 16.369 256.497 16.0811 256.497 15.7412C256.497 15.4202 256.346 15.1134 256.044 14.8208C255.751 14.5282 254.968 14.1222 253.693 13.603C252.542 13.1405 251.588 12.6921 250.833 12.2578C250.078 11.8141 249.422 11.1864 248.865 10.3745C248.308 9.56266 248.029 8.53841 248.029 7.30176C248.029 4.90397 248.903 3.09619 250.649 1.87842C252.395 0.660645 254.972 0.0517578 258.38 0.0517578C261.496 0.0517578 264.38 0.533203 267.032 1.49609Z" fill="white"/>
</svg>
