<svg width="291" height="87" viewBox="0 0 291 87" fill="none" xmlns="http://www.w3.org/2000/svg">
<path d="M25.7988 39H13.4224L0 0.999023H16.4106L20.8184 13.4004L25.4502 0.999023H37.1294L41.9854 13.4004L46.144 0.999023H62.5796L49.7798 39H37.3784L31.377 23.959L25.7988 39ZM74.8315 9.11719C73.6362 9.11719 72.6069 8.68555 71.7437 7.82227C70.8804 6.95898 70.4487 5.92969 70.4487 4.73438C70.4487 3.53906 70.8804 2.51807 71.7437 1.67139C72.6069 0.824707 73.6362 0.401367 74.8315 0.401367C76.0269 0.401367 77.0479 0.824707 77.8945 1.67139C78.7412 2.51807 79.1646 3.53906 79.1646 4.73438C79.1646 5.92969 78.7412 6.95898 77.8945 7.82227C77.0479 8.68555 76.0269 9.11719 74.8315 9.11719ZM79.2642 9.01758V39H63.8745V9.01758C65.8999 10.1631 68.5312 10.7358 71.7686 10.7358C74.7734 10.7358 77.272 10.1631 79.2642 9.01758ZM85.8384 39V0.999023H102.672V29.4624H117.415V39H85.8384ZM121.573 0.999023H140.275C147.015 0.999023 152.22 2.8667 155.889 6.60205C159.558 10.3208 161.392 14.8115 161.392 20.0742C161.392 23.4277 160.554 26.5986 158.877 29.5869C157.217 32.5586 154.776 34.8745 151.556 36.5347C148.335 38.1782 144.442 39 139.876 39H121.573V0.999023ZM138.382 15.542V24.457H138.806C140.831 24.457 142.292 24.1084 143.188 23.4111C144.102 22.6973 144.558 21.5352 144.558 19.9248C144.558 17.0029 142.856 15.542 139.453 15.542H138.382ZM3.73535 86V47.999H34.9878V57.5366H20.5444V64.4346H31.2524V73.9722H20.5444V86H3.73535ZM70.3989 76.4624V86H38.8477V47.999H70.3989V57.5366H55.6567V62.2432H65.9165V71.7808H55.6567V76.4624H70.3989ZM107.105 76.4624V86H75.5537V47.999H107.105V57.5366H92.3628V62.2432H102.623V71.7808H92.3628V76.4624H107.105ZM112.185 86V47.999H129.019V76.4624H143.761V86H112.185ZM158.055 56.1172C156.86 56.1172 155.831 55.6855 154.967 54.8223C154.104 53.959 153.672 52.9297 153.672 51.7344C153.672 50.5391 154.104 49.5181 154.967 48.6714C155.831 47.8247 156.86 47.4014 158.055 47.4014C159.25 47.4014 160.271 47.8247 161.118 48.6714C161.965 49.5181 162.388 50.5391 162.388 51.7344C162.388 52.9297 161.965 53.959 161.118 54.8223C160.271 55.6855 159.25 56.1172 158.055 56.1172ZM162.488 56.0176V86H147.098V56.0176C149.124 57.1631 151.755 57.7358 154.992 57.7358C157.997 57.7358 160.496 57.1631 162.488 56.0176ZM206.864 86.2988H194.114L185.946 74.3208V86H169.137V47.999H181.165L190.03 60.8486V47.999H206.864V86.2988ZM252.659 52.4814L244.541 63.9116C241.154 62.2847 238.025 61.4712 235.153 61.4712C233.244 61.4712 231.708 61.9692 230.546 62.9653C229.4 63.9448 228.828 65.248 228.828 66.875C228.828 69.9629 230.853 71.5068 234.904 71.5068V65.5552H251.738V86.0498C244.931 86.4316 240.324 86.6226 237.917 86.6226C228.62 86.6226 222.162 84.647 218.543 80.6958C214.924 76.7446 213.114 72.1377 213.114 66.875C213.114 63.2559 213.953 59.9355 215.629 56.9141C217.323 53.8926 219.755 51.5518 222.926 49.8916C226.113 48.2314 229.882 47.4014 234.231 47.4014C237.286 47.4014 240.449 47.8496 243.719 48.7461C246.99 49.626 249.97 50.8711 252.659 52.4814ZM289.714 49.9414L285.53 61.9194C282.791 58.2173 279.645 56.3662 276.092 56.3662C274.117 56.3662 273.129 57.1133 273.129 58.6074C273.129 59.0723 273.436 59.5454 274.05 60.0269C274.681 60.5083 276.316 61.2637 278.956 62.293C281.861 63.4385 284.094 64.4844 285.655 65.4307C287.232 66.3604 288.411 67.5557 289.191 69.0166C289.971 70.4775 290.361 72.1792 290.361 74.1216C290.361 78.189 288.817 81.2935 285.729 83.4351C282.642 85.5601 278.101 86.6226 272.108 86.6226C265.384 86.6226 259.59 85.668 254.726 83.7588L258.835 71.0586C260.03 72.918 261.508 74.3955 263.268 75.4912C265.044 76.5869 266.746 77.1348 268.373 77.1348C269.169 77.1348 269.833 76.9272 270.365 76.5122C270.913 76.0972 271.187 75.5908 271.187 74.9932C271.187 74.4287 270.921 73.8892 270.39 73.3745C269.875 72.8599 268.497 72.146 266.256 71.2329C264.23 70.4194 262.554 69.6309 261.226 68.8672C259.897 68.0869 258.744 66.9829 257.764 65.5552C256.785 64.1274 256.295 62.3262 256.295 60.1514C256.295 55.9346 257.831 52.7554 260.902 50.6138C263.973 48.4722 268.505 47.4014 274.499 47.4014C279.977 47.4014 285.049 48.248 289.714 49.9414Z" fill="white"/>
</svg>
